<?xml version="1.0" standalone="no"?>
<!DOCTYPE svg PUBLIC "-//W3C//DTD SVG 20010904//EN"
 "http://www.w3.org/TR/2001/REC-SVG-20010904/DTD/svg10.dtd">
<svg version="1.0" xmlns="http://www.w3.org/2000/svg"
 width="690.000000pt" height="690.000000pt" viewBox="0 0 690.000000 690.000000"
 preserveAspectRatio="xMidYMid meet">
<metadata>
Created by potrace 1.11, written by Peter Selinger 2001-2013
</metadata>
<g transform="translate(0.000000,690.000000) scale(0.100000,-0.100000)"
fill="#000000" stroke="none">
<path d="M3476 6823 c-4 -10 -113 -306 -242 -658 -129 -352 -239 -649 -244
-660 -5 -11 -22 -58 -39 -105 -16 -47 -65 -182 -109 -300 -44 -118 -123 -334
-177 -480 -53 -146 -128 -348 -165 -450 -38 -102 -86 -235 -108 -295 -22 -61
-45 -122 -51 -135 -5 -14 -31 -83 -56 -155 -26 -71 -50 -139 -55 -150 -5 -11
-40 -108 -79 -215 -39 -107 -80 -217 -90 -245 -11 -27 -56 -151 -101 -275 -45
-124 -102 -279 -127 -345 -25 -66 -60 -160 -78 -210 -18 -49 -66 -182 -108
-295 -41 -113 -167 -457 -280 -765 -114 -308 -244 -663 -291 -790 -47 -126
-83 -231 -81 -233 2 -2 68 44 147 102 78 58 152 112 163 120 11 8 45 33 75 56
30 22 64 47 75 54 11 8 297 219 636 468 338 249 646 476 685 504 38 28 175
129 304 224 129 95 272 200 318 233 45 34 82 68 82 76 0 11 4 9 13 -6 6 -12
149 -123 317 -245 299 -220 454 -333 670 -493 60 -44 119 -87 131 -95 12 -8
34 -24 48 -36 14 -11 121 -89 236 -174 207 -151 248 -182 455 -334 58 -42 116
-85 129 -94 13 -9 44 -33 70 -52 108 -83 424 -310 427 -307 2 1 -42 124 -96
272 -158 427 -183 495 -280 760 -50 138 -95 259 -100 270 -5 11 -30 79 -56
150 -25 72 -60 166 -76 210 -16 44 -47 127 -67 185 -21 58 -70 191 -109 295
-38 105 -145 395 -236 645 -92 250 -171 464 -176 475 -5 11 -39 103 -76 205
-37 102 -78 214 -91 250 -14 36 -35 94 -48 130 -13 36 -38 103 -55 150 -17 47
-42 114 -55 150 -13 36 -53 146 -90 245 -37 99 -77 209 -90 245 -12 36 -62
171 -110 300 -105 284 -135 365 -214 585 -34 94 -67 181 -72 194 -6 13 -46
124 -91 245 -44 122 -115 316 -158 431 -43 116 -90 246 -105 290 -32 92 -40
103 -49 78z m11 -3055 c-3 -8 -6 -5 -6 6 -1 11 2 17 5 13 3 -3 4 -12 1 -19z
m0 -370 c-3 -8 -6 -5 -6 6 -1 11 2 17 5 13 3 -3 4 -12 1 -19z m0 -70 c-3 -8
-6 -5 -6 6 -1 11 2 17 5 13 3 -3 4 -12 1 -19z m0 -120 c-3 -8 -6 -5 -6 6 -1
11 2 17 5 13 3 -3 4 -12 1 -19z m0 -40 c-3 -8 -6 -5 -6 6 -1 11 2 17 5 13 3
-3 4 -12 1 -19z m0 -80 c-3 -8 -6 -5 -6 6 -1 11 2 17 5 13 3 -3 4 -12 1 -19z
m0 -40 c-3 -8 -6 -5 -6 6 -1 11 2 17 5 13 3 -3 4 -12 1 -19z m0 -80 c-3 -8 -6
-5 -6 6 -1 11 2 17 5 13 3 -3 4 -12 1 -19z m0 -80 c-3 -7 -5 -2 -5 12 0 14 2
19 5 13 2 -7 2 -19 0 -25z m0 -40 c-3 -8 -6 -5 -6 6 -1 11 2 17 5 13 3 -3 4
-12 1 -19z m0 -80 c-3 -7 -5 -2 -5 12 0 14 2 19 5 13 2 -7 2 -19 0 -25z m0
-130 c-3 -8 -6 -5 -6 6 -1 11 2 17 5 13 3 -3 4 -12 1 -19z m0 -40 c-3 -8 -6
-5 -6 6 -1 11 2 17 5 13 3 -3 4 -12 1 -19z m0 -120 c-3 -8 -6 -5 -6 6 -1 11 2
17 5 13 3 -3 4 -12 1 -19z m0 -40 c-3 -8 -6 -5 -6 6 -1 11 2 17 5 13 3 -3 4
-12 1 -19z m0 -70 c-3 -8 -6 -5 -6 6 -1 11 2 17 5 13 3 -3 4 -12 1 -19z m0
-75 c-3 -10 -5 -4 -5 12 0 17 2 24 5 18 2 -7 2 -21 0 -30z m0 -45 c-3 -8 -6
-5 -6 6 -1 11 2 17 5 13 3 -3 4 -12 1 -19z m0 -85 c-3 -10 -5 -2 -5 17 0 19 2
27 5 18 2 -10 2 -26 0 -35z m0 -85 c-3 -7 -5 -2 -5 12 0 14 2 19 5 13 2 -7 2
-19 0 -25z m0 -110 c-2 -13 -4 -3 -4 22 0 25 2 35 4 23 2 -13 2 -33 0 -45z"/>
</g>
</svg>
